<?xml version="1.0" encoding="UTF-8"?>
<svg xmlns="http://www.w3.org/2000/svg" width="660" height="463" viewBox="0 0 660 463" role="img" aria-labelledby="cardTitle">
<title id="cardTitle">MobinPourvali info card</title>
<style><![CDATA[.ln{opacity:0;animation:slidein 0.42s cubic-bezier(.22,.61,.36,1) forwards}@keyframes slidein{from{opacity:0;transform:translateX(-12px)}to{opacity:1;transform:translateX(0)}}.cur{animation:blink 1.1s steps(1,end) infinite}@keyframes blink{0%,49%{opacity:1}50%,100%{opacity:0}}.d0{animation-delay:0.150s}.d1{animation-delay:0.225s}.d2{animation-delay:0.300s}.d3{animation-delay:0.375s}.d4{animation-delay:0.450s}.d5{animation-delay:0.525s}.d6{animation-delay:0.600s}.d7{animation-delay:0.675s}.d8{animation-delay:0.750s}.d9{animation-delay:0.825s}.d10{animation-delay:0.900s}.d11{animation-delay:0.975s}.d12{animation-delay:1.050s}.d13{animation-delay:1.125s}.d14{animation-delay:1.200s}.d15{animation-delay:1.275s}.d16{animation-delay:1.350s}@media (prefers-reduced-motion: reduce){.ln{opacity:1;animation:none}.cur{animation:none}}]]></style>
<rect x="0.5" y="0.5" width="659" height="462" rx="10" fill="#0d1117" stroke="#30363d"/>
<path d="M0.5 10.5a10 10 0 0 1 10-10h639a10 10 0 0 1 10 10V34H0.5Z" fill="#161b22"/>
<line x1="0.5" y1="34" x2="659.5" y2="34" stroke="#30363d"/>
<circle cx="16" cy="17" r="5.5" fill="#f85149"/><circle cx="34" cy="17" r="5.5" fill="#e3b341"/><circle cx="52" cy="17" r="5.5" fill="#3fb950"/>
<text x="330" y="21" text-anchor="middle" font-family="ui-monospace, SFMono-Regular, 'SF Mono', Menlo, Consolas, 'DejaVu Sans Mono', 'Liberation Mono', monospace" font-size="12" fill="#8b949e">neofetch</text>
<g font-family="ui-monospace, SFMono-Regular, 'SF Mono', Menlo, Consolas, 'DejaVu Sans Mono', 'Liberation Mono', monospace" font-size="13.5">
<g class="ln d0"><text x="24" y="54" fill="#58a6ff" font-weight="700">Mobin@bioinformatics</text></g>
<g class="ln d1"><text x="24" y="77" fill="#8b949e">----------------------------------</text></g>
<g class="ln d2"><text x="24" y="100" fill="#7ee787" font-weight="700">Now</text><text x="132" y="100" fill="#c9d1d9">MSc Molecular Biotechnology &amp; Bioinformatics</text></g>
<g class="ln d3"><text x="132" y="123" fill="#c9d1d9">University of Milan (UNIMI)</text></g>
<g class="ln d4"><text x="132" y="146" fill="#c9d1d9">Research Intern, Functional Proteomics @ IFOM</text></g>
<g class="ln d6"><text x="24" y="192" fill="#7ee787" font-weight="700">Research</text><text x="132" y="192" fill="#c9d1d9">Cancer Multi-omics &amp; Biomarker Discovery</text></g>
<g class="ln d7"><text x="24" y="215" fill="#7ee787" font-weight="700">Omics</text><text x="132" y="215" fill="#c9d1d9">Transcriptomics (Bulk &amp; scRNA-seq) · Proteomics</text></g>
<g class="ln d8"><text x="24" y="238" fill="#7ee787" font-weight="700">Toolkit</text><text x="132" y="238" fill="#c9d1d9">R (Bioconductor) · Python · Snakemake · Bash</text></g>
<g class="ln d9"><text x="24" y="261" fill="#7ee787" font-weight="700">Databases</text><text x="132" y="261" fill="#c9d1d9">TCGA · GEO · COSMIC</text></g>
<g class="ln d10"><text x="24" y="284" fill="#7ee787" font-weight="700">Goal</text><text x="132" y="284" fill="#c9d1d9">Decoding tumor mechanisms via integrative omics</text></g>
<g class="ln d12"><text x="24" y="330" fill="#7ee787" font-weight="700">Editor</text><text x="132" y="330" fill="#c9d1d9">VS Code (RStudio)</text></g>
<g class="ln d13"><text x="24" y="353" fill="#7ee787" font-weight="700">Uptime</text><text x="132" y="353" fill="#c9d1d9">Coffee-dependent</text></g>
<g class="ln d15"><rect x="24" y="388" width="26" height="13" rx="2" fill="#f85149"/><rect x="56" y="388" width="26" height="13" rx="2" fill="#ffa657"/><rect x="88" y="388" width="26" height="13" rx="2" fill="#e3b341"/><rect x="120" y="388" width="26" height="13" rx="2" fill="#7ee787"/><rect x="152" y="388" width="26" height="13" rx="2" fill="#58a6ff"/><rect x="184" y="388" width="26" height="13" rx="2" fill="#d2a8ff"/><rect x="216" y="388" width="26" height="13" rx="2" fill="#c9d1d9"/></g>
<g class="ln d16"><text x="24" y="422" fill="#ffa657">Mobin@bioinformatics ~ $</text><rect class="cur" x="226.4" y="411" width="8" height="14" fill="#c9d1d9"/><text x="636" y="422" text-anchor="end" fill="#8b949e" font-size="11">Last updated: 2026-09-05</text></g>
</g>
</svg>